<svg xmlns="http://www.w3.org/2000/svg" viewBox="0 0 48 48" width="48" height="48"><defs><filter id="sh" x="-30%" y="-30%" width="160%" height="160%"><feDropShadow dx="0.5" dy="1.1" stdDeviation="0.9" flood-color="#000" flood-opacity="0.38"/></filter><linearGradient id="cs" x1="0" y1="6" x2="0" y2="42" gradientUnits="userSpaceOnUse"><stop offset="0" stop-color="#FFF1CF"/><stop offset="0.5" stop-color="#F4B73E"/><stop offset="1" stop-color="#C8861A"/></linearGradient></defs><g filter="url(#sh)"><path d="M9 7 V40 H43" fill="none" stroke="#5A6472" stroke-width="2.2" stroke-linecap="round"/><polyline points="10.0,35.2 11.9,21.3 13.9,31.6 15.8,17.4 17.8,27.5 19.7,13.3 21.6,23.3 23.6,11.3 25.5,22.7 27.5,11.9 29.4,23.8 31.4,15.1 33.3,27.8 35.2,15.0 37.2,30.5 39.1,22.5 41.1,38.2 43.0,25.4" fill="none" stroke="#46566A" stroke-width="1.6" stroke-linejoin="round"/><polyline points="10.0,29.2 10.8,28.0 11.7,26.9 12.5,25.8 13.3,24.8 14.1,23.9 14.9,23.1 15.8,22.3 16.6,21.5 17.4,20.9 18.2,20.3 19.1,19.8 19.9,19.3 20.7,18.9 21.6,18.6 22.4,18.3 23.2,18.2 24.0,18.0 24.9,18.0 25.7,18.0 26.5,18.1 27.3,18.3 28.1,18.5 29.0,18.8 29.8,19.2 30.6,19.6 31.4,20.1 32.3,20.6 33.1,21.3 33.9,22.0 34.8,22.8 35.6,23.6 36.4,24.5 37.2,25.5 38.0,26.5 38.9,27.6 39.7,28.8 40.5,30.1 41.4,31.4 42.2,32.7 43.0,34.2" fill="none" stroke="#7A4E0E" stroke-width="5.2" stroke-linecap="round" stroke-linejoin="round"/><polyline points="10.0,29.2 10.8,28.0 11.7,26.9 12.5,25.8 13.3,24.8 14.1,23.9 14.9,23.1 15.8,22.3 16.6,21.5 17.4,20.9 18.2,20.3 19.1,19.8 19.9,19.3 20.7,18.9 21.6,18.6 22.4,18.3 23.2,18.2 24.0,18.0 24.9,18.0 25.7,18.0 26.5,18.1 27.3,18.3 28.1,18.5 29.0,18.8 29.8,19.2 30.6,19.6 31.4,20.1 32.3,20.6 33.1,21.3 33.9,22.0 34.8,22.8 35.6,23.6 36.4,24.5 37.2,25.5 38.0,26.5 38.9,27.6 39.7,28.8 40.5,30.1 41.4,31.4 42.2,32.7 43.0,34.2" fill="none" stroke="url(#cs)" stroke-width="3.2" stroke-linecap="round" stroke-linejoin="round"/></g></svg>