<svg xmlns="http://www.w3.org/2000/svg" viewBox="0 0 48 48" width="48" height="48"><g transform="matrix(1.0648 0 0 1.0648 -3.419 -2.354)"><defs><filter id="sh" x="-30%" y="-30%" width="160%" height="160%"><feGaussianBlur in="SourceAlpha" stdDeviation="0.9"/><feOffset dx="0.5" dy="1.1" result="offsetblur"/><feFlood flood-color="#000" flood-opacity="0.38"/><feComposite in2="offsetblur" operator="in"/><feMerge><feMergeNode/><feMergeNode in="SourceGraphic"/></feMerge></filter><linearGradient id="fb" x1="0" y1="12" x2="0" y2="40" gradientUnits="userSpaceOnUse"><stop offset="0" stop-color="#FBFCFE"/><stop offset="0.5" stop-color="#AEBAC8"/><stop offset="1" stop-color="#6B7888"/></linearGradient><linearGradient id="ff" x1="0" y1="24" x2="0" y2="42" gradientUnits="userSpaceOnUse"><stop offset="0" stop-color="#FFFFFF"/><stop offset="0.5" stop-color="#E6ECF2"/><stop offset="1" stop-color="#C2CCD7"/></linearGradient></defs><g filter="url(#sh)"><path d="M6 15 L17 15 L20 11.5 L40 11.5 Q42 11.5 42 13.5 L42 21 L6 21 Z" fill="url(#fb)" stroke="#3E4854" stroke-width="1.7" stroke-linejoin="round"/><rect x="14" y="13" width="22" height="16" rx="1.5" fill="#ffffff" stroke="#C2C9D2" stroke-width="1.1"/><path d="M5 21 L43 21 L46.5 36 Q46.7 38 44.7 38 L9 38 Q7.3 38 6.9 36.4 Z" fill="url(#ff)" stroke="#3E4854" stroke-width="1.7" stroke-linejoin="round"/><rect x="10" y="23" width="28" height="3" rx="1.5" fill="#fff" opacity="0.3"/></g></g></svg>