<svg xmlns="http://www.w3.org/2000/svg" viewBox="0 0 48 48" width="48" height="48"><g transform="matrix(1.3624 0 0 1.3624 -8.696 -8.867)"><defs><filter id="sh" x="-30%" y="-30%" width="160%" height="160%"><feGaussianBlur in="SourceAlpha" stdDeviation="0.9"/><feOffset dx="0.5" dy="1.1" result="offsetblur"/><feFlood flood-color="#000" flood-opacity="0.38"/><feComposite in2="offsetblur" operator="in"/><feMerge><feMergeNode/><feMergeNode in="SourceGraphic"/></feMerge></filter><linearGradient id="hb" x1="0" y1="8" x2="0" y2="40" gradientUnits="userSpaceOnUse"><stop offset="0" stop-color="#D7F3F8"/><stop offset="0.5" stop-color="#3FC4D4"/><stop offset="1" stop-color="#1E8A99"/></linearGradient></defs><g filter="url(#sh)"><path d="M24 13 Q16 10 8 12 V36 Q16 34 24 37 Z" fill="url(#hb)" stroke="#0E4A55" stroke-width="1.8" stroke-linejoin="round"/><path d="M24 13 Q32 10 40 12 V36 Q32 34 24 37 Z" fill="url(#hb)" stroke="#0E4A55" stroke-width="1.8" stroke-linejoin="round"/><rect x="22.8" y="13" width="2.4" height="24" fill="#1E8A99" opacity="0.5"/><path d="M11 19 Q16 17.6 21 18.8" fill="none" stroke="#EAFBFD" stroke-width="1.5" stroke-linecap="round" opacity="0.85"/><path d="M11 23 Q16 21.6 21 22.8" fill="none" stroke="#EAFBFD" stroke-width="1.5" stroke-linecap="round" opacity="0.85"/><path d="M11 27 Q16 25.6 21 26.8" fill="none" stroke="#EAFBFD" stroke-width="1.5" stroke-linecap="round" opacity="0.85"/><path d="M11 31 Q16 29.6 21 30.8" fill="none" stroke="#EAFBFD" stroke-width="1.5" stroke-linecap="round" opacity="0.85"/><text x="32.5" y="30" text-anchor="middle" font-family="DejaVu Sans" font-weight="bold" font-size="18" fill="#fff">?</text></g></g></svg>