<svg xmlns="http://www.w3.org/2000/svg" viewBox="0 0 48 48" width="48" height="48"><defs><linearGradient id="cchp" x1="0" y1="4" x2="0" y2="34" gradientUnits="userSpaceOnUse"><stop offset="0" stop-color="#FBFCFE"/><stop offset="0.5" stop-color="#E6ECF2"/><stop offset="1" stop-color="#6B7888"/></linearGradient><linearGradient id="cchr" x1="0" y1="34" x2="0" y2="44" gradientUnits="userSpaceOnUse"><stop offset="0" stop-color="#DCE3EA"/><stop offset="1" stop-color="#78838F"/></linearGradient><linearGradient id="ccht" x1="6" y1="0" x2="42" y2="0" gradientUnits="userSpaceOnUse"><stop offset="0" stop-color="#C3CDD8"/><stop offset="0.10" stop-color="#FFFFFF"/><stop offset="0.22" stop-color="#CBE7F4"/><stop offset="0.34" stop-color="#F3F6F9"/><stop offset="0.46" stop-color="#FFFFFF"/><stop offset="0.58" stop-color="#EFD9EA"/><stop offset="0.70" stop-color="#F5F8FA"/><stop offset="0.82" stop-color="#F7EBC6"/><stop offset="0.92" stop-color="#FFFFFF"/><stop offset="1" stop-color="#B6C1CE"/></linearGradient></defs><g stroke="#3E4854" stroke-width="2" stroke-linejoin="round"><path d="M6 38.5 a18 6 0 0 0 36 0 v-2.5 a18 6 0 0 0 -36 0 Z" fill="url(#cchr)"/><ellipse cx="24" cy="36" rx="18" ry="6" fill="url(#ccht)"/><ellipse cx="24" cy="36" rx="5.4" ry="1.9" fill="#E3E9EF" stroke="none"/><ellipse cx="24" cy="36" rx="2.6" ry="0.9" fill="#4A535F" stroke="none"/><rect x="7" y="4" width="27" height="20" rx="2" fill="url(#cchp)"/><rect x="12" y="9" width="27" height="20" rx="2" fill="url(#cchp)"/><g stroke="none"><rect x="15" y="12" width="21" height="14" fill="#BFE3F5"/><circle cx="20.5" cy="16.5" r="2.4" fill="#F4C040"/><path d="M15 26 L22 18.5 L27 23.5 L30 20.5 L36 26 Z" fill="#5BA84E"/><path d="M15 26 L22 18.5 L24.5 21 L19.5 26 Z" fill="#4C9241"/></g><rect x="12" y="9" width="27" height="20" rx="2" fill="none"/></g></svg>
