<svg xmlns="http://www.w3.org/2000/svg" viewBox="0 0 48 48" width="48" height="48"><g transform="matrix(1.1161 0 0 1.1161 -2.787 -2.787)"><defs><filter id="sh" x="-30%" y="-30%" width="160%" height="160%"><feGaussianBlur in="SourceAlpha" stdDeviation="0.9"/><feOffset dx="0.5" dy="1.1" result="offsetblur"/><feFlood flood-color="#000" flood-opacity="0.38"/><feComposite in2="offsetblur" operator="in"/><feMerge><feMergeNode/><feMergeNode in="SourceGraphic"/></feMerge></filter><linearGradient id="rc" x1="0" y1="6" x2="0" y2="42" gradientUnits="userSpaceOnUse"><stop offset="0" stop-color="#E8F4FF"/><stop offset="0.5" stop-color="#5BA7F0"/><stop offset="1" stop-color="#1869C8"/></linearGradient></defs><g filter="url(#sh)"><g transform="rotate(0 24 24)"><path d="M24 19 L29 11 L26 11 L26 4 L22 4 L22 11 L19 11 Z" fill="url(#rc)" stroke="#0E3E72" stroke-width="1.5" stroke-linejoin="round"/></g><g transform="rotate(90 24 24)"><path d="M24 19 L29 11 L26 11 L26 4 L22 4 L22 11 L19 11 Z" fill="url(#rc)" stroke="#0E3E72" stroke-width="1.5" stroke-linejoin="round"/></g><g transform="rotate(180 24 24)"><path d="M24 19 L29 11 L26 11 L26 4 L22 4 L22 11 L19 11 Z" fill="url(#rc)" stroke="#0E3E72" stroke-width="1.5" stroke-linejoin="round"/></g><g transform="rotate(270 24 24)"><path d="M24 19 L29 11 L26 11 L26 4 L22 4 L22 11 L19 11 Z" fill="url(#rc)" stroke="#0E3E72" stroke-width="1.5" stroke-linejoin="round"/></g><circle cx="24" cy="24" r="3.2" fill="#1869C8" stroke="#0E3E72" stroke-width="1.3"/></g></g></svg>