<svg xmlns="http://www.w3.org/2000/svg" viewBox="0 0 48 48" width="48" height="48"><g transform="matrix(1.2189 0 0 1.2189 -5.255 -5.864)"><defs><filter id="sh" x="-30%" y="-30%" width="160%" height="160%"><feGaussianBlur in="SourceAlpha" stdDeviation="0.9"/><feOffset dx="0.5" dy="1.1" result="offsetblur"/><feFlood flood-color="#000" flood-opacity="0.38"/><feComposite in2="offsetblur" operator="in"/><feMerge><feMergeNode/><feMergeNode in="SourceGraphic"/></feMerge></filter><linearGradient id="pr" x1="0" y1="8" x2="0" y2="40" gradientUnits="userSpaceOnUse"><stop offset="0" stop-color="#F0EAFF"/><stop offset="0.5" stop-color="#9B7BEA"/><stop offset="1" stop-color="#6A45C8"/></linearGradient><linearGradient id="prk" x1="0" y1="20" x2="0" y2="29" gradientUnits="userSpaceOnUse"><stop offset="0" stop-color="#F0EAFF"/><stop offset="0.5" stop-color="#9B7BEA"/><stop offset="1" stop-color="#6A45C8"/></linearGradient></defs><g filter="url(#sh)"><path d="M 12.4 10.2 L 10.4 12.2 L 8.7 14.5 L 7.4 17.0 L 6.5 19.7 L 6.1 22.5 L 6.1 25.4 L 6.5 28.2 L 7.4 30.9 L 8.7 33.4 L 10.3 35.7 L 12.4 37.7 L 14.7 39.4 L 17.2 40.7 L 19.9 41.5 L 22.7 42.0 L 25.6 41.9 L 28.4 41.5 L 31.1 40.6 L 33.6 39.2 L 35.9 37.5 L 37.9 35.5 L 39.5 33.2 L 40.7 30.6 L 41.6 27.9 L 42.0 25.1 L 41.9 22.2 L 41.4 19.4 L 40.5 16.8 L 39.1 14.2 L 37.4 12.0 L 35.3 10.0 L 33.0 8.4 L 29.5 14.5 L 30.9 15.5 L 32.2 16.7 L 33.2 18.0 L 34.1 19.6 L 34.6 21.2 L 34.9 22.9 L 35.0 24.7 L 34.7 26.4 L 34.2 28.0 L 33.5 29.6 L 32.5 31.0 L 31.3 32.3 L 29.9 33.3 L 28.3 34.1 L 26.7 34.7 L 25.0 35.0 L 23.2 35.0 L 21.5 34.7 L 19.8 34.2 L 18.3 33.4 L 16.9 32.4 L 15.7 31.2 L 14.6 29.8 L 13.8 28.2 L 13.3 26.6 L 13.0 24.8 L 13.0 23.1 L 13.3 21.4 L 13.9 19.7 L 14.7 18.2 L 15.7 16.8 L 16.9 15.6 Z" fill="url(#pr)" stroke="#3C2580" stroke-width="1.8" stroke-linejoin="round"/><path d="M 21.6 7.1 L 10.5 7.9 L 18.9 17.9 Z" fill="url(#pr)" stroke="#3C2580" stroke-width="1.8" stroke-linejoin="round"/><rect x="17.5" y="23.1" width="13" height="1.9" rx="0.95" fill="#3C2580"/><rect x="22.3" y="21.1" width="3.6" height="5.8" rx="1.5" fill="url(#prk)" stroke="#3C2580" stroke-width="1.1"/></g></g></svg>