<svg xmlns="http://www.w3.org/2000/svg" viewBox="0 0 48 48" width="48" height="48"><g transform="matrix(1.1161 0 0 1.1161 -4.462 -4.183)"><defs><filter id="sh" x="-30%" y="-30%" width="160%" height="160%"><feGaussianBlur in="SourceAlpha" stdDeviation="0.9"/><feOffset dx="0.5" dy="1.1" result="offsetblur"/><feFlood flood-color="#000" flood-opacity="0.38"/><feComposite in2="offsetblur" operator="in"/><feMerge><feMergeNode/><feMergeNode in="SourceGraphic"/></feMerge></filter><linearGradient id="gp" x1="0" y1="5" x2="0" y2="40" gradientUnits="userSpaceOnUse"><stop offset="0" stop-color="#F0EAFF"/><stop offset="0.5" stop-color="#9B7BEA"/><stop offset="1" stop-color="#6A45C8"/></linearGradient></defs><g filter="url(#sh)"><path d="M 30.0 18.6 L 34.5 18.9 L 34.5 21.1 L 30.0 21.4 L 28.6 25.4 L 31.8 28.4 L 30.4 30.1 L 26.8 27.5 L 23.1 29.6 L 23.6 34.0 L 21.4 34.4 L 20.4 30.1 L 16.2 29.4 L 13.7 33.1 L 11.8 32.0 L 13.8 28.0 L 11.1 24.7 L 6.8 26.0 L 6.0 23.9 L 10.1 22.1 L 10.1 17.9 L 6.0 16.1 L 6.8 14.0 L 11.1 15.3 L 13.8 12.0 L 11.8 8.0 L 13.7 6.9 L 16.2 10.6 L 20.4 9.9 L 21.4 5.6 L 23.6 6.0 L 23.1 10.4 L 26.8 12.5 L 30.4 9.9 L 31.8 11.6 L 28.6 14.6 Z" fill="url(#gp)" stroke="#3C2580" stroke-width="1.8" stroke-linejoin="round"/><circle cx="20" cy="20" r="5" fill="#F4F1FB" stroke="#3C2580" stroke-width="1.5"/><ellipse cx="16" cy="15" rx="4" ry="2.4" fill="#fff" opacity="0.45"/><rect x="27" y="27" width="18" height="18" rx="3.5" fill="#FFFFFF" stroke="#3C2580" stroke-width="1.6"/><polyline points="30,40 34,35 38,37.5 42,31" fill="none" stroke="#C8861A" stroke-width="1.8" stroke-linecap="round" stroke-linejoin="round"/><circle cx="30" cy="40" r="1.5" fill="#7A4E0E"/><circle cx="34" cy="35" r="1.5" fill="#7A4E0E"/><circle cx="38" cy="37.5" r="1.5" fill="#7A4E0E"/><circle cx="42" cy="31" r="1.5" fill="#7A4E0E"/></g></g></svg>