<svg xmlns="http://www.w3.org/2000/svg" viewBox="0 0 48 48" width="48" height="48"><g transform="matrix(1.1580 0 0 1.1580 -3.792 -3.792)"><defs><filter id="sh" x="-30%" y="-30%" width="160%" height="160%"><feGaussianBlur in="SourceAlpha" stdDeviation="0.9"/><feOffset dx="0.5" dy="1.1" result="offsetblur"/><feFlood flood-color="#000" flood-opacity="0.38"/><feComposite in2="offsetblur" operator="in"/><feMerge><feMergeNode/><feMergeNode in="SourceGraphic"/></feMerge></filter><linearGradient id="pg" x1="0" y1="5" x2="0" y2="43" gradientUnits="userSpaceOnUse"><stop offset="0" stop-color="#FFFFFF"/><stop offset="0.5" stop-color="#EDF1F5"/><stop offset="1" stop-color="#CFD8E1"/></linearGradient><linearGradient id="rg" x1="0" y1="22" x2="0" y2="40" gradientUnits="userSpaceOnUse"><stop offset="0" stop-color="#D8F3B0"/><stop offset="0.5" stop-color="#5BB12F"/><stop offset="1" stop-color="#3C7E18"/></linearGradient></defs><g filter="url(#sh)"><path d="M9 5 H27 L39 17 V43 H9 Z" fill="url(#pg)" stroke="#3E4854" stroke-width="1.6" stroke-linejoin="round"/><path d="M27 5 L27 17 L39 17 Z" fill="#D2DAE3" stroke="#3E4854" stroke-width="1.3" stroke-linejoin="round"/><rect x="14.0" y="12.5" width="6" height="2.8" rx="1.1" fill="#7A52D8"/><rect x="22.0" y="12.5" width="11" height="2.8" rx="1.1" fill="#C0503A"/><rect x="14.0" y="16.5" width="5" height="2.8" rx="1.1" fill="#7A52D8"/><rect x="21.0" y="16.5" width="7" height="2.8" rx="1.1" fill="#3F8F1E"/><rect x="30.0" y="16.5" width="4" height="2.8" rx="1.1" fill="#8A95A2"/><rect x="14.0" y="20.5" width="7" height="2.8" rx="1.1" fill="#7A52D8"/><rect x="23.0" y="20.5" width="9" height="2.8" rx="1.1" fill="#1196A6"/><path d="M21 24 H27 V31 H32 L24 40 L16 31 H21 Z" fill="url(#rg)" stroke="#244F0D" stroke-width="1.8" stroke-linejoin="round"/><path d="M22 26 H26" stroke="#ffffff" stroke-width="1.1" stroke-linecap="round" opacity="0.6"/></g></g></svg>