<svg xmlns="http://www.w3.org/2000/svg" viewBox="0 0 48 48" width="48" height="48"><defs><filter id="sh" x="-30%" y="-30%" width="160%" height="160%"><feDropShadow dx="0.5" dy="1.1" stdDeviation="0.9" flood-color="#000" flood-opacity="0.38"/></filter><linearGradient id="ru" x1="0" y1="6" x2="0" y2="42" gradientUnits="userSpaceOnUse"><stop offset="0" stop-color="#D8F3B0"/><stop offset="0.5" stop-color="#5BB12F"/><stop offset="1" stop-color="#3C7E18"/></linearGradient><linearGradient id="gr" x1="0" y1="7" x2="0" y2="41" gradientUnits="userSpaceOnUse"><stop offset="0" stop-color="#FBFCFE"/><stop offset="0.5" stop-color="#AEBAC8"/><stop offset="1" stop-color="#6B7888"/></linearGradient></defs><g filter="url(#sh)"><path d="M 36.5 22.2 L 40.9 22.7 L 40.9 25.3 L 36.5 25.8 L 34.7 30.7 L 37.8 33.9 L 36.1 35.9 L 32.4 33.4 L 27.9 36.0 L 28.2 40.5 L 25.7 40.9 L 24.4 36.6 L 19.3 35.7 L 16.7 39.3 L 14.4 38.0 L 16.2 33.9 L 12.9 29.9 L 8.5 31.0 L 7.6 28.6 L 11.7 26.6 L 11.7 21.4 L 7.6 19.4 L 8.5 17.0 L 12.9 18.1 L 16.2 14.1 L 14.4 10.0 L 16.7 8.7 L 19.3 12.3 L 24.4 11.4 L 25.7 7.1 L 28.2 7.5 L 27.9 12.0 L 32.4 14.6 L 36.1 12.1 L 37.8 14.1 L 34.7 17.3 Z" fill="url(#gr)" stroke="#3E4854" stroke-width="1.6" stroke-linejoin="round"/><circle cx="24" cy="24" r="5.4" fill="#6B7888" stroke="#3E4854" stroke-width="1.3"/><path d="M13 8 L41 24 L13 40 Z" fill="url(#ru)" stroke="#244F0D" stroke-width="2.4" stroke-linejoin="round"/><path d="M16 12 L32 21" stroke="#ffffff" stroke-width="2.2" stroke-linecap="round" opacity="0.55"/></g></svg>