<svg xmlns="http://www.w3.org/2000/svg" viewBox="0 0 48 48" width="48" height="48"><g transform="matrix(1.3426 0 0 1.3426 -8.223 -8.558)"><defs><filter id="sh" x="-30%" y="-30%" width="160%" height="160%"><feGaussianBlur in="SourceAlpha" stdDeviation="0.9"/><feOffset dx="0.5" dy="1.1" result="offsetblur"/><feFlood flood-color="#000" flood-opacity="0.38"/><feComposite in2="offsetblur" operator="in"/><feMerge><feMergeNode/><feMergeNode in="SourceGraphic"/></feMerge></filter><linearGradient id="rs" x1="0" y1="8" x2="0" y2="40" gradientUnits="userSpaceOnUse"><stop offset="0" stop-color="#E8F4FF"/><stop offset="0.5" stop-color="#5BA7F0"/><stop offset="1" stop-color="#1869C8"/></linearGradient></defs><g filter="url(#sh)"><path d="M 34.4 11.6 L 36.4 13.6 L 38.0 15.9 L 39.2 18.5 L 40.0 21.2 L 40.2 24.0 L 40.0 26.8 L 39.2 29.5 L 38.0 32.1 L 36.4 34.4 L 34.4 36.4 L 32.1 38.0 L 29.5 39.2 L 26.8 40.0 L 24.0 40.2 L 21.2 40.0 L 18.5 39.2 L 15.9 38.0 L 13.6 36.4 L 11.6 34.4 L 10.0 32.1 L 8.8 29.5 L 8.0 26.8 L 7.8 24.0 L 8.0 21.2 L 8.8 18.5 L 10.0 15.9 L 11.6 13.6 L 13.6 11.6 L 15.9 10.0 L 18.5 8.8 L 20.6 14.8 L 19.1 15.5 L 17.7 16.5 L 16.5 17.7 L 15.5 19.1 L 14.8 20.6 L 14.3 22.3 L 14.2 24.0 L 14.3 25.7 L 14.8 27.4 L 15.5 28.9 L 16.5 30.3 L 17.7 31.5 L 19.1 32.5 L 20.6 33.2 L 22.3 33.7 L 24.0 33.8 L 25.7 33.7 L 27.4 33.2 L 28.9 32.5 L 30.3 31.5 L 31.5 30.3 L 32.5 28.9 L 33.2 27.4 L 33.7 25.7 L 33.8 24.0 L 33.7 22.3 L 33.2 20.6 L 32.5 19.1 L 31.5 17.7 L 30.3 16.5 Z" fill="url(#rs)" stroke="#0E3E72" stroke-width="1.8" stroke-linejoin="round"/><path d="M 25.5 8.3 L 36.5 9.1 L 28.2 19.0 Z" fill="url(#rs)" stroke="#0E3E72" stroke-width="1.8" stroke-linejoin="round"/><path d="M 10.2 26.4 A 14 14 0 0 1 19.2 10.8" fill="none" stroke="#FFFFFF" stroke-width="1.3" stroke-linecap="round" opacity="0.5"/></g></g></svg>